{"title":"Chappie.2015.SWESUB.AC3.DVDRip.XviD-Svennen","uid":12303692,"size":1465294848,"categoryP":"video","categoryS":"movies","magnet":"?xt=urn:btih:013a99beb75b78950be8d1d4a4f1d1ea367c5e20&amp;dn=Chappie.2015.SWESUB.AC3.DVDRip.XviD-Svennen&amp;tr=udp%3A%2F%2Ftracker.openbittorrent.com%3A80&amp;tr=udp%3A%2F%2Fopen.demonii.com%3A1337&amp;tr=udp%3A%2F%2Ftracker.coppersurfer.tk%3A6969&amp;tr=udp%3A%2F%2Fexodus.desync.com%3A6969","seeders":7,"leechers":0,"uploader":null,"files":1,"time":1440760776,"description":"Svennen presentent: Chappie.2015.SWESUB.AC3.DVDRip.XviD-Svennen\n\nIn the near future, crime is patrolled by a mechanized police force. When one police droid, Chappie, is stolen and given new programming, he becomes the first robot with the ability to think and feel for himself.\n\nGeneral\nFormat                                   : AVI\nFormat/Info                              : Audio Video Interleave\nFile size                                : 1.36 GiB\nDuration                                 : 1h 55mn\nOverall bit rate                         : 1 692 Kbps\n\n\nVideo\nID                                       : 0\nFormat                                   : MPEG-4 Visual\nFormat profile                           : Advanced Simple@L5\nFormat settings, BVOP                    : 1\nFormat settings, QPel                    : No\nFormat settings, GMC                     : No warppoints\nFormat settings, Matrix                  : Default (MPEG)\nMuxing mode                              : Packed bitstream\nCodec ID                                 : XVID\nCodec ID/Hint                            : XviD\nDuration                                 : 1h 55mn\nBit rate                                 : 1 235 Kbps\nWidth                                    : 704 pixels\nHeight                                   : 288 pixels\nDisplay aspect ratio                     : 2.40:1\nFrame rate                               : 25.000 fps\nColor space                              : YUV\nChroma subsampling                       : 4:2:0\nBit depth                                : 8 bits\nScan type                                : Progressive\nCompression mode                         : Lossy\nBits/(Pixel*Frame)                       : 0.244\nStream size                              : 1 019 MiB (73%)\nWriting library                          : XviD 1.2.0.dev47 (UTC 2006-11-01)\n\nAudio\nID                                       : 1\nFormat                                   : AC-3\nFormat/Info                              : Audio Coding 3\nMode extension                           : CM (complete main)\nFormat settings, Endianness              : Big\nCodec ID                                 : 2000\nDuration                                 : 1h 55mn\nBit rate mode                            : Constant\nBit rate                                 : 448 Kbps\nChannel(s)                               : 6 channels\nChannel positions                        : Front: L C R, Side: L R, LFE\nSampling rate                            : 48.0 KHz\nBit depth                                : 16 bits\nCompression mode                         : Lossy\nStream size                              : 370 MiB (26%)\nAlignment                                : Split accross interleaves\nInterleave, duration                     : 40 ms (1.00 video frame)\nInterleave, preload duration             : 500 ms\n\nSource DVDR\n\n\nI need suppliers or join a group who need a encoder who release dvd copies. I am are ready to be yours encoder","torrent":{"xt":"urn:btih:013a99beb75b78950be8d1d4a4f1d1ea367c5e20","amp;dn":"Chappie.2015.SWESUB.AC3.DVDRip.XviD-Svennen","amp;tr":["udp%3A%2F%2Ftracker.openbittorrent.com%3A80","udp%3A%2F%2Fopen.demonii.com%3A1337","udp%3A%2F%2Ftracker.coppersurfer.tk%3A6969","udp%3A%2F%2Fexodus.desync.com%3A6969"],"infoHash":"013a99beb75b78950be8d1d4a4f1d1ea367c5e20","infoHashBuffer":{"type":"Buffer","data":[1,58,153,190,183,91,120,149,11,232,209,212,164,241,209,234,54,124,94,32]},"announce":[],"urlList":[]}}